# xmcd
#
# Track frame offsets:
#	150
#	72816
#	98833
#	112472
#	139336
#	159329
#	200581
#	221697
#	275184
#
# Disc length: 3851 seconds
#
# Revision: 1
# Processed by: cddbd v1.5.2PL0 Copyright (c) Steve Scherf et al.
# Submitted via: audiograbber 1.83.01
#
DISCID=930f0909
DTITLE=Grateful Dead - 73-06-26 Seattle Centre Arena, Seattle WA
DYEAR=1900
DGENRE=
TTITLE0=Playing In The Band
TTITLE1=Bertha
TTITLE2=Promised Land
TTITLE3=They Love Each Other
TTITLE4=El Paso
TTITLE5=Black Peter
TTITLE6=Big River
TTITLE7=Here Comes Sunshine
TTITLE8=Me and My Uncle
EXTD=
EXTT0=
EXTT1=
EXTT2=
EXTT3=
EXTT4=
EXTT5=
EXTT6=
EXTT7=
EXTT8=
PLAYORDER=
